<svg xmlns="http://www.w3.org/2000/svg" width="22.882" height="18.085">
  <defs>
    <style>.a{fill:#df2143;fill-rule:evenodd}</style>
  </defs>
  <path class="a"
    d="M2.146 0v14.984l9.042 3.1V3.759ZM3.61 2.772a.288.288 0 0 1 .1.026l5.535 2.3a.3.3 0 0 1 .156.156.259.259 0 0 1 .017.1.268.268 0 0 1-.026.1.281.281 0 0 1-.147.156.259.259 0 0 1-.1.017.335.335 0 0 1-.113-.026l-5.535-2.3a.289.289 0 0 1-.147-.156.272.272 0 0 1 .147-.355.311.311 0 0 1 .113-.018Zm0 2.555a.288.288 0 0 1 .1.026l5.535 2.3a.3.3 0 0 1 .156.156.259.259 0 0 1 .017.1.3.3 0 0 1-.277.277.311.311 0 0 1-.113-.026l-5.535-2.3a.289.289 0 0 1-.147-.156.221.221 0 0 1 0-.208.281.281 0 0 1 .147-.156.3.3 0 0 1 .117-.015Zm0 2.633a.288.288 0 0 1 .1.026l5.535 2.3a.3.3 0 0 1 .156.156.259.259 0 0 1 .017.1.268.268 0 0 1-.026.1.281.281 0 0 1-.147.156.259.259 0 0 1-.1.017.311.311 0 0 1-.113-.026l-5.535-2.3a.289.289 0 0 1-.147-.156.272.272 0 0 1 .147-.355.311.311 0 0 1 .113-.018Zm0 2.806a.268.268 0 0 1 .1.026l5.535 2.3a.289.289 0 0 1 .156.147.3.3 0 0 1 .017.113.3.3 0 0 1-.277.277.311.311 0 0 1-.113-.026l-5.535-2.3a.289.289 0 0 1-.147-.156.268.268 0 0 1-.026-.1.311.311 0 0 1 .026-.113.266.266 0 0 1 .147-.147.3.3 0 0 1 .113-.017ZM20.784 0l-9.042 3.759v14.326l9.042-3.1Zm-1.528 2.772a.25.25 0 0 1 .1.026.281.281 0 0 1 .156.147.32.32 0 0 1 0 .208.3.3 0 0 1-.156.156l-5.535 2.3a.268.268 0 0 1-.1.026.259.259 0 0 1-.1-.017.3.3 0 0 1-.156-.156.221.221 0 0 1 0-.208.289.289 0 0 1 .147-.156l5.535-2.3a.311.311 0 0 1 .109-.026Zm0 2.555a.242.242 0 0 1 .1.017.3.3 0 0 1 .156.156.32.32 0 0 1 0 .208.3.3 0 0 1-.156.156l-5.535 2.3a.221.221 0 0 1-.208 0 .285.285 0 0 1-.156-.147.221.221 0 0 1 0-.208.289.289 0 0 1 .147-.156l5.535-2.3a.311.311 0 0 1 .117-.028Zm0 2.633a.25.25 0 0 1 .1.026.281.281 0 0 1 .156.147.32.32 0 0 1 0 .208.3.3 0 0 1-.156.156l-5.535 2.3a.268.268 0 0 1-.1.026.259.259 0 0 1-.1-.017.3.3 0 0 1-.156-.156.221.221 0 0 1 0-.208.289.289 0 0 1 .147-.156l5.535-2.3a.311.311 0 0 1 .109-.026Zm0 2.806a.259.259 0 0 1 .1.017.281.281 0 0 1 .156.147.3.3 0 0 1 .017.113.259.259 0 0 1-.017.1.3.3 0 0 1-.156.156l-5.535 2.3a.268.268 0 0 1-.1.026.288.288 0 0 1-.1-.026.285.285 0 0 1-.156-.147.268.268 0 0 1-.026-.1.311.311 0 0 1 .026-.113.273.273 0 0 1 .147-.147l5.535-2.3a.311.311 0 0 1 .113-.026Z" />
  <path class="a"
    d="M0 1.743h1.59v13.436a.275.275 0 0 0 .187.262l6.05 2.074H.001V1.743Zm21.335 0h1.546v15.773h-7.778l6.05-2.074a.275.275 0 0 0 .187-.262Z" />
</svg>
