<svg xmlns="http://www.w3.org/2000/svg" width="22.882" height="28.799">
  <defs>
    <style>.a{fill:#df2143}</style>
  </defs>
  <path class="a"
    d="M12.341 3.745a10.545 10.545 0 0 0-9.09 5.214.625.625 0 0 0-.075.131 10.5 10.5 0 0 0 0 10.392.64.64 0 0 0 .075.13 10.539 10.539 0 1 0 9.09-15.867Z" />
  <path class="a"
    d="M16.651 24.487a11.07 11.07 0 1 1 0-20.4.636.636 0 1 0 .5-1.17 12.245 12.245 0 0 0-4.121-.947V.636a.636.636 0 1 0-1.271 0v1.323a12.344 12.344 0 0 0-4.221 23.7 12.228 12.228 0 0 0 4.233.956.652.652 0 0 0-.012.12v1.43a.636.636 0 1 0 1.271 0v-1.43a.682.682 0 0 0-.013-.126 12.24 12.24 0 0 0 4.128-.951.635.635 0 0 0-.494-1.17Z" />
</svg>
