<svg xmlns="http://www.w3.org/2000/svg" width="15.453" height="15.417">
  <defs>
    <clipPath id="a">
      <path class="a" d="M0 0h15.453v15.417H0z" />
    </clipPath>
    <style>.a{fill:#fff}</style>
  </defs>
  <path class="a"
    d="M.254 5.117h3.207v10.3H.254ZM1.858 0A1.856 1.856 0 1 1 0 1.854 1.855 1.855 0 0 1 1.858 0M5.47 5.117h3.071v1.41h.042a3.366 3.366 0 0 1 3.031-1.664c3.241 0 3.839 2.132 3.839 4.906v5.648h-3.2V10.41c0-1.2-.024-2.732-1.664-2.732-1.668 0-1.921 1.3-1.921 2.644v5.1H5.47Z"
    style="clip-path:url(#a)" />
</svg>
