<svg xmlns="http://www.w3.org/2000/svg" width="19.582" height="17.512">
  <defs>
    <clipPath id="a">
      <path class="a" d="M0 0h19.582v17.512H0z" />
    </clipPath>
    <style>.a{fill:#fff}</style>
  </defs>
  <path class="a"
    d="M18.627 0h.344c.034.016.066.034.1.047a.776.776 0 0 1 .494.889q-.478 2.523-.965 5.044l-1.585 8.325q-.243 1.275-.49 2.549a.759.759 0 0 1-.642.646.866.866 0 0 1-.661-.19l-4.678-3.177a.2.2 0 0 0-.281 0q-1.2.878-2.418 1.742a.785.785 0 0 1-1.312-.469c-.417-1.574-.836-3.147-1.245-4.723a.365.365 0 0 0-.259-.283C3.582 9.854 2.134 9.3.682 8.748A.969.969 0 0 1 0 8.069v-.23a.939.939 0 0 1 .636-.671q8.1-3.216 16.193-6.44c.6-.239 1.2-.485 1.8-.728M9.044 11.244l6.18 4.19 2.354-12.346-.043-.012-8.49 8.168m-2.026-.094a5.571 5.571 0 0 1 .416-.5q3.859-3.721 7.726-7.435c.068-.065.142-.123.213-.184l-.029-.039L2.919 7.931c.09.039.147.066.206.088.837.321 1.673.646 2.513.96.912.341.9.327 1.138 1.268.078.312.167.621.243.9m.186.717.57 2.156 1.262-.91-1.832-1.243"
    style="clip-path:url(#a)" />
</svg>
