<svg xmlns="http://www.w3.org/2000/svg" width="23.362" height="16.353">
  <defs>
    <clipPath id="a">
      <path class="a" d="M0 0h23.362v16.353H0z" />
    </clipPath>
    <style>.a{fill:#fff}</style>
  </defs>
  <path class="a"
    d="M23.361 5.127A5.126 5.126 0 0 0 18.235 0H5.126A5.126 5.126 0 0 0 0 5.127v6.1a5.125 5.125 0 0 0 5.126 5.126h13.109a5.126 5.126 0 0 0 5.126-5.126Zm-7.709 3.507-5.878 2.908c-.23.124-1.013-.043-1.013-.3V5.268c0-.266.789-.432 1.02-.3l5.627 3.061c.236.135.483.476.245.606"
    style="clip-path:url(#a)" />
</svg>
